<?xml version="1.0" standalone="yes"?>

<svg version="1.1" viewBox="0.0 0.0 960.0 720.0" fill="none" stroke="none" stroke-linecap="square" stroke-miterlimit="10" xmlns="http://www.w3.org/2000/svg" xmlns:xlink="http://www.w3.org/1999/xlink"><clipPath id="p.0"><path d="m0 0l960.0 0l0 720.0l-960.0 0l0 -720.0z" clip-rule="nonzero"></path></clipPath><g clip-path="url(#p.0)"><path fill="#000000" fill-opacity="0.0" d="m0 0l960.0 0l0 720.0l-960.0 0z" fill-rule="evenodd"></path><path fill="#000000" d="m256.09564 336.07166l0 0c0 -10.463165 8.482086 -18.945251 18.945251 -18.945251l409.92053 0c5.024536 0 9.843384 1.9960022 13.396301 5.54895c3.5529175 3.5529175 5.54895 8.371704 5.54895 13.396301l0 75.77878c0 10.463165 -8.482117 18.945251 -18.945251 18.945251l-409.92053 0c-10.463165 0 -18.945251 -8.482086 -18.945251 -18.945251z" fill-rule="evenodd"></path><path stroke="#000000" stroke-width="1.0" stroke-linejoin="round" stroke-linecap="butt" d="m256.09564 336.07166l0 0c0 -10.463165 8.482086 -18.945251 18.945251 -18.945251l409.92053 0c5.024536 0 9.843384 1.9960022 13.396301 5.54895c3.5529175 3.5529175 5.54895 8.371704 5.54895 13.396301l0 75.77878c0 10.463165 -8.482117 18.945251 -18.945251 18.945251l-409.92053 0c-10.463165 0 -18.945251 -8.482086 -18.945251 -18.945251z" fill-rule="evenodd"></path><path fill="#000000" d="m113.29785 217.81667l0 0c0 -10.680618 8.658356 -19.338974 19.338974 -19.338974l77.35356 0l0 0c5.129013 0 10.047943 2.0374908 13.674713 5.6642456c3.6267548 3.62677 5.6642456 8.545715 5.6642456 13.674728l0 312.2827c0 10.680603 -8.65834 19.338928 -19.338959 19.338928l-77.35356 0c-10.680618 0 -19.338974 -8.658325 -19.338974 -19.338928z" fill-rule="evenodd"></path><path stroke="#000000" stroke-width="1.0" stroke-linejoin="round" stroke-linecap="butt" d="m113.29785 217.81667l0 0c0 -10.680618 8.658356 -19.338974 19.338974 -19.338974l77.35356 0l0 0c5.129013 0 10.047943 2.0374908 13.674713 5.6642456c3.6267548 3.62677 5.6642456 8.545715 5.6642456 13.674728l0 312.2827c0 10.680603 -8.65834 19.338928 -19.338959 19.338928l-77.35356 0c-10.680618 0 -19.338974 -8.658325 -19.338974 -19.338928z" fill-rule="evenodd"></path><path fill="#000000" d="m730.67535 217.81667l0 0c0 -10.680618 8.658386 -19.338974 19.33899 -19.338974l77.35358 0l0 0c5.1290283 0 10.047974 2.0374908 13.674683 5.6642456c3.62677 3.62677 5.6643066 8.545715 5.6643066 13.674728l0 312.2827c0 10.680603 -8.658386 19.338928 -19.33899 19.338928l-77.35358 0c-10.680603 0 -19.33899 -8.658325 -19.33899 -19.338928z" fill-rule="evenodd"></path><path stroke="#000000" stroke-width="1.0" stroke-linejoin="round" stroke-linecap="butt" d="m730.67535 217.81667l0 0c0 -10.680618 8.658386 -19.338974 19.33899 -19.338974l77.35358 0l0 0c5.1290283 0 10.047974 2.0374908 13.674683 5.6642456c3.62677 3.62677 5.6643066 8.545715 5.6643066 13.674728l0 312.2827c0 10.680603 -8.658386 19.338928 -19.33899 19.338928l-77.35358 0c-10.680603 0 -19.33899 -8.658325 -19.33899 -19.338928z" fill-rule="evenodd"></path><path fill="#000000" d="m24.25853 282.34384l0 0c0 -5.7316895 4.6464615 -10.378174 10.378162 -10.378174l41.511395 0l0 0c2.7524567 0 5.3921814 1.0934143 7.3384705 3.0397034c1.9462814 1.9462891 3.039688 4.5859985 3.039688 7.3384705l0 183.24368c0 5.7316895 -4.6464615 10.378143 -10.378159 10.378143l-41.511395 0c-5.731701 0 -10.378162 -4.646454 -10.378162 -10.378143z" fill-rule="evenodd"></path><path stroke="#000000" stroke-width="1.0" stroke-linejoin="round" stroke-linecap="butt" d="m24.25853 282.34384l0 0c0 -5.7316895 4.6464615 -10.378174 10.378162 -10.378174l41.511395 0l0 0c2.7524567 0 5.3921814 1.0934143 7.3384705 3.0397034c1.9462814 1.9462891 3.039688 4.5859985 3.039688 7.3384705l0 183.24368c0 5.7316895 -4.6464615 10.378143 -10.378159 10.378143l-41.511395 0c-5.731701 0 -10.378162 -4.646454 -10.378162 -10.378143z" fill-rule="evenodd"></path><path fill="#000000" d="m873.47314 282.34384l0 0c0 -5.7316895 4.6464844 -10.378174 10.378174 -10.378174l41.511414 0l0 0c2.7524414 0 5.392151 1.0934143 7.33844 3.0397034c1.9462891 1.9462891 3.039734 4.5859985 3.039734 7.3384705l0 183.24368c0 5.7316895 -4.6464844 10.378143 -10.378174 10.378143l-41.511414 0c-5.7316895 0 -10.378174 -4.646454 -10.378174 -10.378143z" fill-rule="evenodd"></path><path stroke="#000000" stroke-width="1.0" stroke-linejoin="round" stroke-linecap="butt" d="m873.47314 282.34384l0 0c0 -5.7316895 4.6464844 -10.378174 10.378174 -10.378174l41.511414 0l0 0c2.7524414 0 5.392151 1.0934143 7.33844 3.0397034c1.9462891 1.9462891 3.039734 4.5859985 3.039734 7.3384705l0 183.24368c0 5.7316895 -4.6464844 10.378143 -10.378174 10.378143l-41.511414 0c-5.7316895 0 -10.378174 -4.646454 -10.378174 -10.378143z" fill-rule="evenodd"></path></g></svg>

