<?xml version="1.0" standalone="yes"?>

<svg version="1.1" viewBox="0.0 0.0 960.0 720.0" fill="none" stroke="none" stroke-linecap="square" stroke-miterlimit="10" xmlns="http://www.w3.org/2000/svg" xmlns:xlink="http://www.w3.org/1999/xlink"><clipPath id="p.0"><path d="m0 0l960.0 0l0 720.0l-960.0 0l0 -720.0z" clip-rule="nonzero"></path></clipPath><g clip-path="url(#p.0)"><path fill="#000000" fill-opacity="0.0" d="m0 0l960.0 0l0 720.0l-960.0 0z" fill-rule="evenodd"></path><path fill="#000000" fill-opacity="0.0" d="m174.20473 360.0l0 0c0 -168.88606 137.4803 -305.7953 307.07086 -305.7953l0 0c81.440216 0 159.54489 32.217625 217.13187 89.56535c57.586975 57.347748 89.938965 135.12796 89.938965 216.22992l0 0c0 168.88605 -137.48029 305.7953 -307.07083 305.7953l0 0c-169.59058 0 -307.07086 -136.90924 -307.07086 -305.7953z" fill-rule="evenodd"></path><path stroke="#000000" stroke-width="12.0" stroke-linejoin="round" stroke-linecap="butt" d="m174.20473 360.0l0 0c0 -168.88606 137.4803 -305.7953 307.07086 -305.7953l0 0c81.440216 0 159.54489 32.217625 217.13187 89.56535c57.586975 57.347748 89.938965 135.12796 89.938965 216.22992l0 0c0 168.88605 -137.48029 305.7953 -307.07083 305.7953l0 0c-169.59058 0 -307.07086 -136.90924 -307.07086 -305.7953z" fill-rule="evenodd"></path><path fill="#000000" d="m344.09186 246.40158l0 0c0 -16.594635 13.720551 -30.047256 30.64566 -30.047256l0 0c8.127747 0 15.922607 3.1656952 21.66977 8.800644c5.7471924 5.6349487 8.975922 13.277588 8.975922 21.246613l0 0c0 16.594635 -13.720551 30.047241 -30.64569 30.047241l0 0c-16.92511 0 -30.64566 -13.452606 -30.64566 -30.047241z" fill-rule="evenodd"></path><path stroke="#000000" stroke-width="1.0" stroke-linejoin="round" stroke-linecap="butt" d="m344.09186 246.40158l0 0c0 -16.594635 13.720551 -30.047256 30.64566 -30.047256l0 0c8.127747 0 15.922607 3.1656952 21.66977 8.800644c5.7471924 5.6349487 8.975922 13.277588 8.975922 21.246613l0 0c0 16.594635 -13.720551 30.047241 -30.64569 30.047241l0 0c-16.92511 0 -30.64566 -13.452606 -30.64566 -30.047241z" fill-rule="evenodd"></path><path fill="#000000" d="m546.2808 246.40158l0 0c0 -16.594635 13.720581 -30.047256 30.64569 -30.047256l0 0c8.127747 0 15.922607 3.1656952 21.669739 8.800644c5.7471924 5.6349487 8.975952 13.277588 8.975952 21.246613l0 0c0 16.594635 -13.720581 30.047241 -30.64569 30.047241l0 0c-16.92511 0 -30.64569 -13.452606 -30.64569 -30.047241z" fill-rule="evenodd"></path><path stroke="#000000" stroke-width="1.0" stroke-linejoin="round" stroke-linecap="butt" d="m546.2808 246.40158l0 0c0 -16.594635 13.720581 -30.047256 30.64569 -30.047256l0 0c8.127747 0 15.922607 3.1656952 21.669739 8.800644c5.7471924 5.6349487 8.975952 13.277588 8.975952 21.246613l0 0c0 16.594635 -13.720581 30.047241 -30.64569 30.047241l0 0c-16.92511 0 -30.64569 -13.452606 -30.64569 -30.047241z" fill-rule="evenodd"></path><path fill="#000000" fill-opacity="0.0" d="m630.83466 420.25732l0 0c-0.012390137 78.394226 -67.54657 141.9375 -150.84586 141.93164c-83.29932 -0.00579834 -150.82346 -63.558533 -150.82346 -141.95276l150.83466 0z" fill-rule="evenodd"></path><path fill="#000000" fill-opacity="0.0" d="m630.83466 420.25732l0 0c-0.012390137 78.394226 -67.54657 141.9375 -150.84586 141.93164c-83.29932 -0.00579834 -150.82346 -63.558533 -150.82346 -141.95276" fill-rule="evenodd"></path><path stroke="#000000" stroke-width="12.0" stroke-linejoin="round" stroke-linecap="butt" d="m630.83466 420.25732l0 0c-0.012390137 78.394226 -67.54657 141.9375 -150.84586 141.93164c-83.29932 -0.00579834 -150.82346 -63.558533 -150.82346 -141.95276" fill-rule="evenodd"></path></g></svg>

