<svg version="1.1" viewBox="0.0 0.0 441.1758530183727 514.1181102362204" fill="none" stroke="none" stroke-linecap="square" stroke-miterlimit="10" xmlns:xlink="http://www.w3.org/1999/xlink" xmlns="http://www.w3.org/2000/svg"><clipPath id="p.0"><path d="m0 0l441.17584 0l0 514.1181l-441.17584 0l0 -514.1181z" clip-rule="nonzero"/></clipPath><g clip-path="url(#p.0)"><path fill="#000000" fill-opacity="0.0" d="m0 0l441.17584 0l0 514.1181l-441.17584 0z" fill-rule="evenodd"/><path fill="#000000" d="m0 194.12599l0 0c0 -107.21283 87.47721 -194.12599 195.38583 -194.12599l0 0c51.819534 0 101.51669 20.4525 138.15863 56.858185c36.641968 36.405685 57.227203 85.782394 57.227203 137.2678l0 0c0 107.212814 -87.477234 194.12599 -195.38583 194.12599l0 0c-107.90862 0 -195.38583 -86.91318 -195.38583 -194.12599zm43.767643 0l0 0c0 83.0406 67.881775 150.35832 151.6182 150.35832c83.73639 0 151.61816 -67.31772 151.61816 -150.35832l0 0c0 -83.04063 -67.881775 -150.35835 -151.61816 -150.35835l0 0c-83.73642 0 -151.6182 67.31772 -151.6182 150.35835z" fill-rule="evenodd"/><path stroke="#000000" stroke-width="1.0" stroke-linejoin="round" stroke-linecap="butt" d="m0 194.12599l0 0c0 -107.21283 87.47721 -194.12599 195.38583 -194.12599l0 0c51.819534 0 101.51669 20.4525 138.15863 56.858185c36.641968 36.405685 57.227203 85.782394 57.227203 137.2678l0 0c0 107.212814 -87.477234 194.12599 -195.38583 194.12599l0 0c-107.90862 0 -195.38583 -86.91318 -195.38583 -194.12599zm43.767643 0l0 0c0 83.0406 67.881775 150.35832 151.6182 150.35832c83.73639 0 151.61816 -67.31772 151.61816 -150.35832l0 0c0 -83.04063 -67.881775 -150.35835 -151.61816 -150.35835l0 0c-83.73642 0 -151.6182 67.31772 -151.6182 150.35835z" fill-rule="evenodd"/><path fill="#000000" d="m286.80746 314.36874l0 0c12.328888 -8.7387085 29.411469 -5.8310547 38.155 6.494385l103.95886 146.54672c4.1987915 5.9188843 5.8737183 13.26239 4.65625 20.41504c-1.2174377 7.1526184 -5.227539 13.528473 -11.148071 17.724945l-0.4555359 0.3229065l0 0c-12.328888 8.7387085 -29.411469 5.8310547 -38.155 -6.494385l-103.95886 -146.54672c-8.743561 -12.325439 -5.8370667 -29.401306 6.4918213 -38.140015z" fill-rule="evenodd"/><path stroke="#000000" stroke-width="1.0" stroke-linejoin="round" stroke-linecap="butt" d="m286.80746 314.36874l0 0c12.328888 -8.7387085 29.411469 -5.8310547 38.155 6.494385l103.95886 146.54672c4.1987915 5.9188843 5.8737183 13.26239 4.65625 20.41504c-1.2174377 7.1526184 -5.227539 13.528473 -11.148071 17.724945l-0.4555359 0.3229065l0 0c-12.328888 8.7387085 -29.411469 5.8310547 -38.155 -6.494385l-103.95886 -146.54672c-8.743561 -12.325439 -5.8370667 -29.401306 6.4918213 -38.140015z" fill-rule="evenodd"/></g></svg>